<?xml version="1.0" encoding="UTF-8" standalone="no"?>
<!DOCTYPE svg PUBLIC "-//W3C//DTD SVG 1.1//EN"
 "http://www.w3.org/Graphics/SVG/1.1/DTD/svg11.dtd">
<!-- Generated by graphviz version 2.40.1 (20161225.0304)
 -->
<!-- Title: dependencies Pages: 1 -->
<svg width="674pt" height="284pt"
 viewBox="0.00 0.00 674.00 284.00" xmlns="http://www.w3.org/2000/svg" xmlns:xlink="http://www.w3.org/1999/xlink">
<g id="graph0" class="graph" transform="scale(1 1) rotate(0) translate(4 280)">
<title>dependencies</title>
<polygon fill="#ffffff" stroke="transparent" points="-4,4 -4,-280 670,-280 670,4 -4,4"/>
<text text-anchor="start" x="312.0091" y="-42.4" font-family="sans-serif" font-weight="bold" font-size="14.00" fill="#000000">Legend</text>
<polygon fill="#ffffb3" stroke="transparent" points="99,-10 99,-30 119,-30 119,-10 99,-10"/>
<text text-anchor="start" x="122.629" y="-15.4" font-family="sans-serif" font-size="14.00" fill="#000000"> &#160;Declarations</text>
<polygon fill="#8dd3c7" stroke="transparent" points="212,-10 212,-30 232,-30 232,-10 212,-10"/>
<text text-anchor="start" x="235.7251" y="-15.4" font-family="sans-serif" font-size="14.00" fill="#000000"> &#160;Module</text>
<polygon fill="#80b1d3" stroke="transparent" points="298,-10 298,-30 318,-30 318,-10 298,-10"/>
<text text-anchor="start" x="321.7812" y="-15.4" font-family="sans-serif" font-size="14.00" fill="#000000"> &#160;Bootstrap</text>
<polygon fill="#fdb462" stroke="transparent" points="395,-10 395,-30 415,-30 415,-10 395,-10"/>
<text text-anchor="start" x="418.6732" y="-15.4" font-family="sans-serif" font-size="14.00" fill="#000000"> &#160;Providers</text>
<polygon fill="#fb8072" stroke="transparent" points="491,-10 491,-30 511,-30 511,-10 491,-10"/>
<text text-anchor="start" x="514.7258" y="-15.4" font-family="sans-serif" font-size="14.00" fill="#000000"> &#160;Exports</text>
<g id="clust1" class="cluster">
<title>cluster_AppModule</title>
<polygon fill="none" stroke="#000000" stroke-dasharray="1,5" points="8,-70 8,-268 658,-268 658,-70 8,-70"/>
</g>
<g id="clust2" class="cluster">
<title>cluster_AppModule_declarations</title>
<polygon fill="none" stroke="#000000" points="528,-78 528,-130 650,-130 650,-78 528,-78"/>
</g>
<g id="clust4" class="cluster">
<title>cluster_AppModule_imports</title>
<polygon fill="none" stroke="#000000" points="416,-78 416,-130 520,-130 520,-78 416,-78"/>
</g>
<g id="clust6" class="cluster">
<title>cluster_AppModule_bootstrap</title>
<polygon fill="none" stroke="#000000" points="311,-208 311,-260 435,-260 435,-208 311,-208"/>
</g>
<g id="clust7" class="cluster">
<title>cluster_AppModule_providers</title>
<polygon fill="none" stroke="#000000" points="16,-78 16,-130 408,-130 408,-78 16,-78"/>
</g>
<!-- AppComponent -->
<g id="node1" class="node">
<title>AppComponent</title>
<polygon fill="#ffffb3" stroke="#000000" points="641.9399,-122 536.0601,-122 536.0601,-86 641.9399,-86 641.9399,-122"/>
<text text-anchor="middle" x="589" y="-99.8" font-family="Times,serif" font-size="14.00" fill="#000000">AppComponent</text>
</g>
<!-- AppModule -->
<g id="node2" class="node">
<title>AppModule</title>
<polygon fill="#8dd3c7" stroke="#000000" points="414.6571,-187 411.6571,-191 390.6571,-191 387.6571,-187 331.3429,-187 331.3429,-151 414.6571,-151 414.6571,-187"/>
<text text-anchor="middle" x="373" y="-164.8" font-family="Times,serif" font-size="14.00" fill="#000000">AppModule</text>
</g>
<!-- AppComponent&#45;&gt;AppModule -->
<g id="edge1" class="edge">
<title>AppComponent&#45;&gt;AppModule</title>
<path fill="none" stroke="#000000" d="M589,-122.1061C589,-141.3391 589,-169 589,-169 589,-169 424.9031,-169 424.9031,-169"/>
<polygon fill="#000000" stroke="#000000" points="424.9031,-165.5001 414.9031,-169 424.9031,-172.5001 424.9031,-165.5001"/>
</g>
<!-- AppComponent  -->
<g id="node4" class="node">
<title>AppComponent </title>
<polygon fill="#80b1d3" stroke="#000000" points="427.439,-252 318.561,-252 318.561,-216 427.439,-216 427.439,-252"/>
<text text-anchor="middle" x="373" y="-229.8" font-family="Times,serif" font-size="14.00" fill="#000000">AppComponent </text>
</g>
<!-- AppModule&#45;&gt;AppComponent  -->
<g id="edge3" class="edge">
<title>AppModule&#45;&gt;AppComponent </title>
<path fill="none" stroke="#000000" stroke-dasharray="1,5" d="M373,-187.1061C373,-187.1061 373,-205.991 373,-205.991"/>
<polygon fill="#000000" stroke="#000000" points="369.5001,-205.9909 373,-215.991 376.5001,-205.991 369.5001,-205.9909"/>
</g>
<!-- AuthModule -->
<g id="node3" class="node">
<title>AuthModule</title>
<polygon fill="#8dd3c7" stroke="#000000" points="511.5482,-122 508.5482,-126 487.5482,-126 484.5482,-122 424.4518,-122 424.4518,-86 511.5482,-86 511.5482,-122"/>
<text text-anchor="middle" x="468" y="-99.8" font-family="Times,serif" font-size="14.00" fill="#000000">AuthModule</text>
</g>
<!-- AuthModule&#45;&gt;AppModule -->
<g id="edge2" class="edge">
<title>AuthModule&#45;&gt;AppModule</title>
<path fill="none" stroke="#000000" d="M424.2907,-104C414.7368,-104 407.4141,-104 407.4141,-104 407.4141,-104 407.4141,-140.8939 407.4141,-140.8939"/>
<polygon fill="#000000" stroke="#000000" points="403.9142,-140.8938 407.4141,-150.8939 410.9142,-140.8939 403.9142,-140.8938"/>
</g>
<!-- Api -->
<g id="node5" class="node">
<title>Api</title>
<ellipse fill="#fdb462" stroke="#000000" cx="373" cy="-104" rx="27" ry="18"/>
<text text-anchor="middle" x="373" y="-99.8" font-family="Times,serif" font-size="14.00" fill="#000000">Api</text>
</g>
<!-- Api&#45;&gt;AppModule -->
<g id="edge4" class="edge">
<title>Api&#45;&gt;AppModule</title>
<path fill="none" stroke="#000000" d="M373,-122.1061C373,-122.1061 373,-140.991 373,-140.991"/>
<polygon fill="#000000" stroke="#000000" points="369.5001,-140.9909 373,-150.991 376.5001,-140.991 369.5001,-140.9909"/>
</g>
<!-- BaseUrlProvider -->
<g id="node6" class="node">
<title>BaseUrlProvider</title>
<ellipse fill="#fdb462" stroke="#000000" cx="252" cy="-104" rx="75.8586" ry="18"/>
<text text-anchor="middle" x="252" y="-99.8" font-family="Times,serif" font-size="14.00" fill="#000000">BaseUrlProvider</text>
</g>
<!-- BaseUrlProvider&#45;&gt;AppModule -->
<g id="edge5" class="edge">
<title>BaseUrlProvider&#45;&gt;AppModule</title>
<path fill="none" stroke="#000000" d="M323.2299,-110.314C323.2299,-125.5344 323.2299,-163 323.2299,-163 323.2299,-163 324.0075,-163 324.0075,-163"/>
<polygon fill="#000000" stroke="#000000" points="321.0065,-166.5001 331.0065,-163 321.0064,-159.5001 321.0065,-166.5001"/>
</g>
<!-- JwtInterceptor -->
<g id="node7" class="node">
<title>JwtInterceptor</title>
<ellipse fill="#fdb462" stroke="#000000" cx="91" cy="-104" rx="66.6094" ry="18"/>
<text text-anchor="middle" x="91" y="-99.8" font-family="Times,serif" font-size="14.00" fill="#000000">JwtInterceptor</text>
</g>
<!-- JwtInterceptor&#45;&gt;AppModule -->
<g id="edge6" class="edge">
<title>JwtInterceptor&#45;&gt;AppModule</title>
<path fill="none" stroke="#000000" d="M91,-122.2843C91,-143.3211 91,-175 91,-175 91,-175 321.0863,-175 321.0863,-175"/>
<polygon fill="#000000" stroke="#000000" points="321.0863,-178.5001 331.0863,-175 321.0862,-171.5001 321.0863,-178.5001"/>
</g>
</g>
</svg>
