<?xml version="1.0" encoding="UTF-8" standalone="no"?>
<!DOCTYPE svg PUBLIC "-//W3C//DTD SVG 1.1//EN"
 "http://www.w3.org/Graphics/SVG/1.1/DTD/svg11.dtd">
<!-- Generated by graphviz version 2.40.1 (20161225.0304)
 -->
<!-- Title: dependencies Pages: 1 -->
<svg width="2198pt" height="363pt"
 viewBox="0.00 0.00 2198.00 363.00" xmlns="http://www.w3.org/2000/svg" xmlns:xlink="http://www.w3.org/1999/xlink">
<g id="graph0" class="graph" transform="scale(1 1) rotate(0) translate(4 359)">
<title>dependencies</title>
<polygon fill="#ffffff" stroke="transparent" points="-4,4 -4,-359 2194,-359 2194,4 -4,4"/>
<text text-anchor="start" x="1074.0091" y="-42.4" font-family="sans-serif" font-weight="bold" font-size="14.00" fill="#000000">Legend</text>
<polygon fill="#ffffb3" stroke="transparent" points="861,-10 861,-30 881,-30 881,-10 861,-10"/>
<text text-anchor="start" x="884.629" y="-15.4" font-family="sans-serif" font-size="14.00" fill="#000000"> &#160;Declarations</text>
<polygon fill="#8dd3c7" stroke="transparent" points="974,-10 974,-30 994,-30 994,-10 974,-10"/>
<text text-anchor="start" x="997.7251" y="-15.4" font-family="sans-serif" font-size="14.00" fill="#000000"> &#160;Module</text>
<polygon fill="#80b1d3" stroke="transparent" points="1060,-10 1060,-30 1080,-30 1080,-10 1060,-10"/>
<text text-anchor="start" x="1083.7812" y="-15.4" font-family="sans-serif" font-size="14.00" fill="#000000"> &#160;Bootstrap</text>
<polygon fill="#fdb462" stroke="transparent" points="1157,-10 1157,-30 1177,-30 1177,-10 1157,-10"/>
<text text-anchor="start" x="1180.6732" y="-15.4" font-family="sans-serif" font-size="14.00" fill="#000000"> &#160;Providers</text>
<polygon fill="#fb8072" stroke="transparent" points="1253,-10 1253,-30 1273,-30 1273,-10 1253,-10"/>
<text text-anchor="start" x="1276.7258" y="-15.4" font-family="sans-serif" font-size="14.00" fill="#000000"> &#160;Exports</text>
<g id="clust1" class="cluster">
<title>cluster_AppModule</title>
<polygon fill="none" stroke="#000000" stroke-dasharray="1,5" points="8,-146 8,-347 658,-347 658,-146 8,-146"/>
</g>
<g id="clust2" class="cluster">
<title>cluster_AppModule_declarations</title>
<polygon fill="none" stroke="#000000" points="528,-154 528,-206 650,-206 650,-154 528,-154"/>
</g>
<g id="clust4" class="cluster">
<title>cluster_AppModule_imports</title>
<polygon fill="none" stroke="#000000" points="416,-154 416,-206 520,-206 520,-154 416,-154"/>
</g>
<g id="clust6" class="cluster">
<title>cluster_AppModule_bootstrap</title>
<polygon fill="none" stroke="#000000" points="311,-287 311,-339 435,-339 435,-287 311,-287"/>
</g>
<g id="clust7" class="cluster">
<title>cluster_AppModule_providers</title>
<polygon fill="none" stroke="#000000" points="16,-154 16,-206 408,-206 408,-154 16,-154"/>
</g>
<g id="clust8" class="cluster">
<title>cluster_AuthModule</title>
<polygon fill="none" stroke="#000000" stroke-dasharray="1,5" points="168,-70 168,-138 779,-138 779,-70 168,-70"/>
</g>
<g id="clust9" class="cluster">
<title>cluster_AuthModule_declarations</title>
<polygon fill="none" stroke="#000000" points="176,-78 176,-130 771,-130 771,-78 176,-78"/>
</g>
<g id="clust18" class="cluster">
<title>cluster_CategoryModule</title>
<polygon fill="none" stroke="#000000" stroke-dasharray="1,5" points="787,-70 787,-206 951,-206 951,-70 787,-70"/>
</g>
<g id="clust19" class="cluster">
<title>cluster_CategoryModule_declarations</title>
<polygon fill="none" stroke="#000000" points="795,-78 795,-130 943,-130 943,-78 795,-78"/>
</g>
<g id="clust25" class="cluster">
<title>cluster_DashboardModule</title>
<polygon fill="none" stroke="#000000" stroke-dasharray="1,5" points="959,-70 959,-206 1133,-206 1133,-70 959,-70"/>
</g>
<g id="clust26" class="cluster">
<title>cluster_DashboardModule_declarations</title>
<polygon fill="none" stroke="#000000" points="967,-78 967,-130 1125,-130 1125,-78 967,-78"/>
</g>
<g id="clust32" class="cluster">
<title>cluster_FoodModule</title>
<polygon fill="none" stroke="#000000" stroke-dasharray="1,5" points="1141,-70 1141,-206 1283,-206 1283,-70 1141,-70"/>
</g>
<g id="clust33" class="cluster">
<title>cluster_FoodModule_declarations</title>
<polygon fill="none" stroke="#000000" points="1149,-78 1149,-130 1275,-130 1275,-78 1149,-78"/>
</g>
<g id="clust39" class="cluster">
<title>cluster_LayoutModule</title>
<polygon fill="none" stroke="#000000" stroke-dasharray="1,5" points="1291,-70 1291,-279 2034,-279 2034,-70 1291,-70"/>
</g>
<g id="clust40" class="cluster">
<title>cluster_LayoutModule_declarations</title>
<polygon fill="none" stroke="#000000" points="1299,-78 1299,-130 2026,-130 2026,-78 1299,-78"/>
</g>
<g id="clust48" class="cluster">
<title>cluster_LayoutModule_bootstrap</title>
<polygon fill="none" stroke="#000000" points="1579,-219 1579,-271 1719,-271 1719,-219 1579,-219"/>
</g>
<g id="clust50" class="cluster">
<title>cluster_UserModule</title>
<polygon fill="none" stroke="#000000" stroke-dasharray="1,5" points="2042,-70 2042,-206 2182,-206 2182,-70 2042,-70"/>
</g>
<g id="clust51" class="cluster">
<title>cluster_UserModule_declarations</title>
<polygon fill="none" stroke="#000000" points="2050,-78 2050,-130 2174,-130 2174,-78 2050,-78"/>
</g>
<!-- AppComponent -->
<g id="node1" class="node">
<title>AppComponent</title>
<polygon fill="#ffffb3" stroke="#000000" points="641.9399,-198 536.0601,-198 536.0601,-162 641.9399,-162 641.9399,-198"/>
<text text-anchor="middle" x="589" y="-175.8" font-family="Times,serif" font-size="14.00" fill="#000000">AppComponent</text>
</g>
<!-- AppModule -->
<g id="node2" class="node">
<title>AppModule</title>
<polygon fill="#8dd3c7" stroke="#000000" points="414.6571,-263 411.6571,-267 390.6571,-267 387.6571,-263 331.3429,-263 331.3429,-227 414.6571,-227 414.6571,-263"/>
<text text-anchor="middle" x="373" y="-240.8" font-family="Times,serif" font-size="14.00" fill="#000000">AppModule</text>
</g>
<!-- AppComponent&#45;&gt;AppModule -->
<g id="edge1" class="edge">
<title>AppComponent&#45;&gt;AppModule</title>
<path fill="none" stroke="#000000" d="M589,-198.1061C589,-217.3391 589,-245 589,-245 589,-245 424.9031,-245 424.9031,-245"/>
<polygon fill="#000000" stroke="#000000" points="424.9031,-241.5001 414.9031,-245 424.9031,-248.5001 424.9031,-241.5001"/>
</g>
<!-- AppComponent  -->
<g id="node4" class="node">
<title>AppComponent </title>
<polygon fill="#80b1d3" stroke="#000000" points="427.439,-331 318.561,-331 318.561,-295 427.439,-295 427.439,-331"/>
<text text-anchor="middle" x="373" y="-308.8" font-family="Times,serif" font-size="14.00" fill="#000000">AppComponent </text>
</g>
<!-- AppModule&#45;&gt;AppComponent  -->
<g id="edge3" class="edge">
<title>AppModule&#45;&gt;AppComponent </title>
<path fill="none" stroke="#000000" stroke-dasharray="1,5" d="M373,-263.2228C373,-263.2228 373,-284.7269 373,-284.7269"/>
<polygon fill="#000000" stroke="#000000" points="369.5001,-284.7269 373,-294.7269 376.5001,-284.727 369.5001,-284.7269"/>
</g>
<!-- AuthModule -->
<g id="node3" class="node">
<title>AuthModule</title>
<polygon fill="#8dd3c7" stroke="#000000" points="511.5482,-198 508.5482,-202 487.5482,-202 484.5482,-198 424.4518,-198 424.4518,-162 511.5482,-162 511.5482,-198"/>
<text text-anchor="middle" x="468" y="-175.8" font-family="Times,serif" font-size="14.00" fill="#000000">AuthModule</text>
</g>
<!-- AuthModule&#45;&gt;AppModule -->
<g id="edge2" class="edge">
<title>AuthModule&#45;&gt;AppModule</title>
<path fill="none" stroke="#000000" d="M424.2907,-180C414.7368,-180 407.4141,-180 407.4141,-180 407.4141,-180 407.4141,-216.8939 407.4141,-216.8939"/>
<polygon fill="#000000" stroke="#000000" points="403.9142,-216.8938 407.4141,-226.8939 410.9142,-216.8939 403.9142,-216.8938"/>
</g>
<!-- Api -->
<g id="node5" class="node">
<title>Api</title>
<ellipse fill="#fdb462" stroke="#000000" cx="373" cy="-180" rx="27" ry="18"/>
<text text-anchor="middle" x="373" y="-175.8" font-family="Times,serif" font-size="14.00" fill="#000000">Api</text>
</g>
<!-- Api&#45;&gt;AppModule -->
<g id="edge4" class="edge">
<title>Api&#45;&gt;AppModule</title>
<path fill="none" stroke="#000000" d="M373,-198.1061C373,-198.1061 373,-216.991 373,-216.991"/>
<polygon fill="#000000" stroke="#000000" points="369.5001,-216.9909 373,-226.991 376.5001,-216.991 369.5001,-216.9909"/>
</g>
<!-- BaseUrlProvider -->
<g id="node6" class="node">
<title>BaseUrlProvider</title>
<ellipse fill="#fdb462" stroke="#000000" cx="252" cy="-180" rx="75.8586" ry="18"/>
<text text-anchor="middle" x="252" y="-175.8" font-family="Times,serif" font-size="14.00" fill="#000000">BaseUrlProvider</text>
</g>
<!-- BaseUrlProvider&#45;&gt;AppModule -->
<g id="edge5" class="edge">
<title>BaseUrlProvider&#45;&gt;AppModule</title>
<path fill="none" stroke="#000000" d="M323.2299,-186.314C323.2299,-201.5344 323.2299,-239 323.2299,-239 323.2299,-239 324.0075,-239 324.0075,-239"/>
<polygon fill="#000000" stroke="#000000" points="321.0065,-242.5001 331.0065,-239 321.0064,-235.5001 321.0065,-242.5001"/>
</g>
<!-- JwtInterceptor -->
<g id="node7" class="node">
<title>JwtInterceptor</title>
<ellipse fill="#fdb462" stroke="#000000" cx="91" cy="-180" rx="66.6094" ry="18"/>
<text text-anchor="middle" x="91" y="-175.8" font-family="Times,serif" font-size="14.00" fill="#000000">JwtInterceptor</text>
</g>
<!-- JwtInterceptor&#45;&gt;AppModule -->
<g id="edge6" class="edge">
<title>JwtInterceptor&#45;&gt;AppModule</title>
<path fill="none" stroke="#000000" d="M91,-198.2843C91,-219.3211 91,-251 91,-251 91,-251 321.0863,-251 321.0863,-251"/>
<polygon fill="#000000" stroke="#000000" points="321.0863,-254.5001 331.0863,-251 321.0862,-247.5001 321.0863,-254.5001"/>
</g>
<!-- AuthComponent -->
<g id="node8" class="node">
<title>AuthComponent</title>
<polygon fill="#ffffb3" stroke="#000000" points="762.8301,-122 653.1699,-122 653.1699,-86 762.8301,-86 762.8301,-122"/>
<text text-anchor="middle" x="708" y="-99.8" font-family="Times,serif" font-size="14.00" fill="#000000">AuthComponent</text>
</g>
<!-- AuthComponent&#45;&gt;AuthModule -->
<g id="edge7" class="edge">
<title>AuthComponent&#45;&gt;AuthModule</title>
<path fill="none" stroke="#000000" d="M708,-122.2434C708,-129.4297 708,-136 708,-136 708,-136 495.4624,-136 495.4624,-136 495.4624,-136 495.4624,-151.8495 495.4624,-151.8495"/>
<polygon fill="#000000" stroke="#000000" points="491.9625,-151.8494 495.4624,-161.8495 498.9625,-151.8495 491.9625,-151.8494"/>
</g>
<!-- ForgotPasswordComponent -->
<g id="node9" class="node">
<title>ForgotPasswordComponent</title>
<polygon fill="#ffffb3" stroke="#000000" points="635.3201,-122 462.6799,-122 462.6799,-86 635.3201,-86 635.3201,-122"/>
<text text-anchor="middle" x="549" y="-99.8" font-family="Times,serif" font-size="14.00" fill="#000000">ForgotPasswordComponent</text>
</g>
<!-- ForgotPasswordComponent&#45;&gt;AuthModule -->
<g id="edge8" class="edge">
<title>ForgotPasswordComponent&#45;&gt;AuthModule</title>
<path fill="none" stroke="#000000" d="M479.1512,-122.0109C479.1512,-122.0109 479.1512,-151.855 479.1512,-151.855"/>
<polygon fill="#000000" stroke="#000000" points="475.6513,-151.8549 479.1512,-161.855 482.6513,-151.855 475.6513,-151.8549"/>
</g>
<!-- LoginComponent -->
<g id="node10" class="node">
<title>LoginComponent</title>
<polygon fill="#ffffb3" stroke="#000000" points="444.2758,-122 329.7242,-122 329.7242,-86 444.2758,-86 444.2758,-122"/>
<text text-anchor="middle" x="387" y="-99.8" font-family="Times,serif" font-size="14.00" fill="#000000">LoginComponent</text>
</g>
<!-- LoginComponent&#45;&gt;AuthModule -->
<g id="edge9" class="edge">
<title>LoginComponent&#45;&gt;AuthModule</title>
<path fill="none" stroke="#000000" d="M437.6674,-122.0109C437.6674,-122.0109 437.6674,-151.855 437.6674,-151.855"/>
<polygon fill="#000000" stroke="#000000" points="434.1675,-151.8549 437.6674,-161.855 441.1675,-151.855 434.1675,-151.8549"/>
</g>
<!-- RegisterComponent -->
<g id="node11" class="node">
<title>RegisterComponent</title>
<polygon fill="#ffffb3" stroke="#000000" points="311.9846,-122 184.0154,-122 184.0154,-86 311.9846,-86 311.9846,-122"/>
<text text-anchor="middle" x="248" y="-99.8" font-family="Times,serif" font-size="14.00" fill="#000000">RegisterComponent</text>
</g>
<!-- RegisterComponent&#45;&gt;AuthModule -->
<g id="edge10" class="edge">
<title>RegisterComponent&#45;&gt;AuthModule</title>
<path fill="none" stroke="#000000" d="M248,-122.0439C248,-134.5633 248,-149 248,-149 248,-149 430.9469,-149 430.9469,-149 430.9469,-149 430.9469,-151.9672 430.9469,-151.9672"/>
<polygon fill="#000000" stroke="#000000" points="427.447,-151.9671 430.9469,-161.9672 434.447,-151.9672 427.447,-151.9671"/>
</g>
<!-- CategoryComponent -->
<g id="node12" class="node">
<title>CategoryComponent</title>
<polygon fill="#ffffb3" stroke="#000000" points="935.1499,-122 802.8501,-122 802.8501,-86 935.1499,-86 935.1499,-122"/>
<text text-anchor="middle" x="869" y="-99.8" font-family="Times,serif" font-size="14.00" fill="#000000">CategoryComponent</text>
</g>
<!-- CategoryModule -->
<g id="node13" class="node">
<title>CategoryModule</title>
<polygon fill="#8dd3c7" stroke="#000000" points="924.3669,-198 921.3669,-202 900.3669,-202 897.3669,-198 813.6331,-198 813.6331,-162 924.3669,-162 924.3669,-198"/>
<text text-anchor="middle" x="869" y="-175.8" font-family="Times,serif" font-size="14.00" fill="#000000">CategoryModule</text>
</g>
<!-- CategoryComponent&#45;&gt;CategoryModule -->
<g id="edge11" class="edge">
<title>CategoryComponent&#45;&gt;CategoryModule</title>
<path fill="none" stroke="#000000" d="M869,-122.0109C869,-122.0109 869,-151.855 869,-151.855"/>
<polygon fill="#000000" stroke="#000000" points="865.5001,-151.8549 869,-161.855 872.5001,-151.855 865.5001,-151.8549"/>
</g>
<!-- DashboardComponent -->
<g id="node14" class="node">
<title>DashboardComponent</title>
<polygon fill="#ffffb3" stroke="#000000" points="1116.9734,-122 975.0266,-122 975.0266,-86 1116.9734,-86 1116.9734,-122"/>
<text text-anchor="middle" x="1046" y="-99.8" font-family="Times,serif" font-size="14.00" fill="#000000">DashboardComponent</text>
</g>
<!-- DashboardModule -->
<g id="node15" class="node">
<title>DashboardModule</title>
<polygon fill="#8dd3c7" stroke="#000000" points="1106.191,-198 1103.191,-202 1082.191,-202 1079.191,-198 985.809,-198 985.809,-162 1106.191,-162 1106.191,-198"/>
<text text-anchor="middle" x="1046" y="-175.8" font-family="Times,serif" font-size="14.00" fill="#000000">DashboardModule</text>
</g>
<!-- DashboardComponent&#45;&gt;DashboardModule -->
<g id="edge12" class="edge">
<title>DashboardComponent&#45;&gt;DashboardModule</title>
<path fill="none" stroke="#000000" d="M1046,-122.0109C1046,-122.0109 1046,-151.855 1046,-151.855"/>
<polygon fill="#000000" stroke="#000000" points="1042.5001,-151.8549 1046,-161.855 1049.5001,-151.855 1042.5001,-151.8549"/>
</g>
<!-- FoodComponent -->
<g id="node16" class="node">
<title>FoodComponent</title>
<polygon fill="#ffffb3" stroke="#000000" points="1267.1151,-122 1156.8849,-122 1156.8849,-86 1267.1151,-86 1267.1151,-122"/>
<text text-anchor="middle" x="1212" y="-99.8" font-family="Times,serif" font-size="14.00" fill="#000000">FoodComponent</text>
</g>
<!-- FoodModule -->
<g id="node17" class="node">
<title>FoodModule</title>
<polygon fill="#8dd3c7" stroke="#000000" points="1256.333,-198 1253.333,-202 1232.333,-202 1229.333,-198 1167.667,-198 1167.667,-162 1256.333,-162 1256.333,-198"/>
<text text-anchor="middle" x="1212" y="-175.8" font-family="Times,serif" font-size="14.00" fill="#000000">FoodModule</text>
</g>
<!-- FoodComponent&#45;&gt;FoodModule -->
<g id="edge13" class="edge">
<title>FoodComponent&#45;&gt;FoodModule</title>
<path fill="none" stroke="#000000" d="M1212,-122.0109C1212,-122.0109 1212,-151.855 1212,-151.855"/>
<polygon fill="#000000" stroke="#000000" points="1208.5001,-151.8549 1212,-161.855 1215.5001,-151.855 1208.5001,-151.8549"/>
</g>
<!-- BreadCrumbComponent -->
<g id="node18" class="node">
<title>BreadCrumbComponent</title>
<polygon fill="#ffffb3" stroke="#000000" points="2017.647,-122 1864.353,-122 1864.353,-86 2017.647,-86 2017.647,-122"/>
<text text-anchor="middle" x="1941" y="-99.8" font-family="Times,serif" font-size="14.00" fill="#000000">BreadCrumbComponent</text>
</g>
<!-- LayoutModule -->
<g id="node23" class="node">
<title>LayoutModule</title>
<polygon fill="#8dd3c7" stroke="#000000" points="1698.7078,-198 1695.7078,-202 1674.7078,-202 1671.7078,-198 1599.2922,-198 1599.2922,-162 1698.7078,-162 1698.7078,-198"/>
<text text-anchor="middle" x="1649" y="-175.8" font-family="Times,serif" font-size="14.00" fill="#000000">LayoutModule</text>
</g>
<!-- BreadCrumbComponent&#45;&gt;LayoutModule -->
<g id="edge14" class="edge">
<title>BreadCrumbComponent&#45;&gt;LayoutModule</title>
<path fill="none" stroke="#000000" d="M1941,-122.1985C1941,-146.3563 1941,-186 1941,-186 1941,-186 1708.8648,-186 1708.8648,-186"/>
<polygon fill="#000000" stroke="#000000" points="1708.8648,-182.5001 1698.8648,-186 1708.8648,-189.5001 1708.8648,-182.5001"/>
</g>
<!-- FooterComponent -->
<g id="node19" class="node">
<title>FooterComponent</title>
<polygon fill="#ffffb3" stroke="#000000" points="1845.8809,-122 1728.1191,-122 1728.1191,-86 1845.8809,-86 1845.8809,-122"/>
<text text-anchor="middle" x="1787" y="-99.8" font-family="Times,serif" font-size="14.00" fill="#000000">FooterComponent</text>
</g>
<!-- FooterComponent&#45;&gt;LayoutModule -->
<g id="edge15" class="edge">
<title>FooterComponent&#45;&gt;LayoutModule</title>
<path fill="none" stroke="#000000" d="M1787,-122.0267C1787,-142.7672 1787,-174 1787,-174 1787,-174 1708.8212,-174 1708.8212,-174"/>
<polygon fill="#000000" stroke="#000000" points="1708.8212,-170.5001 1698.8212,-174 1708.8211,-177.5001 1708.8212,-170.5001"/>
</g>
<!-- HeaderComponent -->
<g id="node20" class="node">
<title>HeaderComponent</title>
<polygon fill="#ffffb3" stroke="#000000" points="1709.7437,-122 1588.2563,-122 1588.2563,-86 1709.7437,-86 1709.7437,-122"/>
<text text-anchor="middle" x="1649" y="-99.8" font-family="Times,serif" font-size="14.00" fill="#000000">HeaderComponent</text>
</g>
<!-- HeaderComponent&#45;&gt;LayoutModule -->
<g id="edge16" class="edge">
<title>HeaderComponent&#45;&gt;LayoutModule</title>
<path fill="none" stroke="#000000" d="M1649,-122.0109C1649,-122.0109 1649,-151.855 1649,-151.855"/>
<polygon fill="#000000" stroke="#000000" points="1645.5001,-151.8549 1649,-161.855 1652.5001,-151.855 1645.5001,-151.8549"/>
</g>
<!-- LayoutComponent -->
<g id="node21" class="node">
<title>LayoutComponent</title>
<polygon fill="#ffffb3" stroke="#000000" points="1570.4902,-122 1449.5098,-122 1449.5098,-86 1570.4902,-86 1570.4902,-122"/>
<text text-anchor="middle" x="1510" y="-99.8" font-family="Times,serif" font-size="14.00" fill="#000000">LayoutComponent</text>
</g>
<!-- LayoutComponent&#45;&gt;LayoutModule -->
<g id="edge17" class="edge">
<title>LayoutComponent&#45;&gt;LayoutModule</title>
<path fill="none" stroke="#000000" d="M1510,-122.0267C1510,-142.7672 1510,-174 1510,-174 1510,-174 1589.2104,-174 1589.2104,-174"/>
<polygon fill="#000000" stroke="#000000" points="1589.2105,-177.5001 1599.2104,-174 1589.2104,-170.5001 1589.2105,-177.5001"/>
</g>
<!-- SidebarComponent -->
<g id="node22" class="node">
<title>SidebarComponent</title>
<polygon fill="#ffffb3" stroke="#000000" points="1431.0954,-122 1306.9046,-122 1306.9046,-86 1431.0954,-86 1431.0954,-122"/>
<text text-anchor="middle" x="1369" y="-99.8" font-family="Times,serif" font-size="14.00" fill="#000000">SidebarComponent</text>
</g>
<!-- SidebarComponent&#45;&gt;LayoutModule -->
<g id="edge18" class="edge">
<title>SidebarComponent&#45;&gt;LayoutModule</title>
<path fill="none" stroke="#000000" d="M1369,-122.1985C1369,-146.3563 1369,-186 1369,-186 1369,-186 1589.2643,-186 1589.2643,-186"/>
<polygon fill="#000000" stroke="#000000" points="1589.2643,-189.5001 1599.2643,-186 1589.2642,-182.5001 1589.2643,-189.5001"/>
</g>
<!-- LayoutComponent  -->
<g id="node24" class="node">
<title>LayoutComponent </title>
<polygon fill="#80b1d3" stroke="#000000" points="1711.4912,-263 1586.5088,-263 1586.5088,-227 1711.4912,-227 1711.4912,-263"/>
<text text-anchor="middle" x="1649" y="-240.8" font-family="Times,serif" font-size="14.00" fill="#000000">LayoutComponent </text>
</g>
<!-- LayoutModule&#45;&gt;LayoutComponent  -->
<g id="edge19" class="edge">
<title>LayoutModule&#45;&gt;LayoutComponent </title>
<path fill="none" stroke="#000000" stroke-dasharray="1,5" d="M1649,-198.1061C1649,-198.1061 1649,-216.991 1649,-216.991"/>
<polygon fill="#000000" stroke="#000000" points="1645.5001,-216.9909 1649,-226.991 1652.5001,-216.991 1645.5001,-216.9909"/>
</g>
<!-- UserComponent -->
<g id="node25" class="node">
<title>UserComponent</title>
<polygon fill="#ffffb3" stroke="#000000" points="2165.7591,-122 2058.2409,-122 2058.2409,-86 2165.7591,-86 2165.7591,-122"/>
<text text-anchor="middle" x="2112" y="-99.8" font-family="Times,serif" font-size="14.00" fill="#000000">UserComponent</text>
</g>
<!-- UserModule -->
<g id="node26" class="node">
<title>UserModule</title>
<polygon fill="#8dd3c7" stroke="#000000" points="2154.9762,-198 2151.9762,-202 2130.9762,-202 2127.9762,-198 2069.0238,-198 2069.0238,-162 2154.9762,-162 2154.9762,-198"/>
<text text-anchor="middle" x="2112" y="-175.8" font-family="Times,serif" font-size="14.00" fill="#000000">UserModule</text>
</g>
<!-- UserComponent&#45;&gt;UserModule -->
<g id="edge20" class="edge">
<title>UserComponent&#45;&gt;UserModule</title>
<path fill="none" stroke="#000000" d="M2112,-122.0109C2112,-122.0109 2112,-151.855 2112,-151.855"/>
<polygon fill="#000000" stroke="#000000" points="2108.5001,-151.8549 2112,-161.855 2115.5001,-151.855 2108.5001,-151.8549"/>
</g>
</g>
</svg>
